<svg xmlns="http://www.w3.org/2000/svg" width="860" height="738" viewBox="0 0 860 738">
<rect width="100%" height="100%" rx="10" fill="#ffffff"/>
<text x="28.0" y="38.0" font-family="-apple-system,Segoe UI,Helvetica,Arial,sans-serif" font-size="20" font-weight="bold" fill="#212529" text-anchor="start">Interpreters: time against Luau's</text>
<text x="28.0" y="62.0" font-family="-apple-system,Segoe UI,Helvetica,Arial,sans-serif" font-size="13" font-weight="normal" fill="#495057" text-anchor="start">Each bar is a share of what Luau -O2 took on the same workload. Under the dashed line is faster than Luau.</text>
<rect x="190.0" y="74.0" width="12" height="12" rx="2" fill="#f76707"/>
<text x="207.0" y="84.0" font-family="-apple-system,Segoe UI,Helvetica,Arial,sans-serif" font-size="12" font-weight="normal" fill="#212529" text-anchor="start">Kest</text>
<rect x="245.6" y="74.0" width="12" height="12" rx="2" fill="#4dabf7"/>
<text x="262.6" y="84.0" font-family="-apple-system,Segoe UI,Helvetica,Arial,sans-serif" font-size="12" font-weight="normal" fill="#212529" text-anchor="start">Luau</text>
<rect x="301.2" y="74.0" width="12" height="12" rx="2" fill="#b197fc"/>
<text x="318.2" y="84.0" font-family="-apple-system,Segoe UI,Helvetica,Arial,sans-serif" font-size="12" font-weight="normal" fill="#212529" text-anchor="start">Lua 5.4</text>
<rect x="376.0" y="74.0" width="12" height="12" rx="2" fill="#f783ac"/>
<text x="393.0" y="84.0" font-family="-apple-system,Segoe UI,Helvetica,Arial,sans-serif" font-size="12" font-weight="normal" fill="#212529" text-anchor="start">LuaJIT, interpreted</text>
<rect x="527.6" y="74.0" width="12" height="12" rx="2" fill="#69db7c"/>
<text x="544.6" y="84.0" font-family="-apple-system,Segoe UI,Helvetica,Arial,sans-serif" font-size="12" font-weight="normal" fill="#212529" text-anchor="start">daslang</text>
<line x1="279.6" y1="92" x2="279.6" y2="682" stroke="#1864ab" stroke-width="1.5" stroke-dasharray="5,4" opacity="0.6"/>
<text x="28.0" y="124.0" font-family="-apple-system,Segoe UI,Helvetica,Arial,sans-serif" font-size="15" font-weight="bold" fill="#212529" text-anchor="start">kernel</text>
<text x="28.0" y="142.0" font-family="-apple-system,Segoe UI,Helvetica,Arial,sans-serif" font-size="11" font-weight="normal" fill="#868e96" text-anchor="start">numbers in, numbers out</text>
<rect x="190" y="102.0" width="61.4" height="15" rx="3" fill="#f76707"/>
<rect x="254.4" y="102.0" width="44" height="15" fill="#ffffff"/>
<text x="257.4" y="114.0" font-family="-apple-system,Segoe UI,Helvetica,Arial,sans-serif" font-size="12" font-weight="bold" fill="#212529" text-anchor="start">0.69×</text>
<rect x="190" y="122.0" width="89.6" height="15" rx="3" fill="#4dabf7"/>
<rect x="282.6" y="122.0" width="44" height="15" fill="#ffffff"/>
<text x="285.6" y="134.0" font-family="-apple-system,Segoe UI,Helvetica,Arial,sans-serif" font-size="12" font-weight="normal" fill="#212529" text-anchor="start">1.00×</text>
<rect x="190" y="142.0" width="89.0" height="15" rx="3" fill="#b197fc"/>
<rect x="282.0" y="142.0" width="44" height="15" fill="#ffffff"/>
<text x="285.0" y="154.0" font-family="-apple-system,Segoe UI,Helvetica,Arial,sans-serif" font-size="12" font-weight="normal" fill="#212529" text-anchor="start">0.99×</text>
<rect x="190" y="162.0" width="70.1" height="15" rx="3" fill="#f783ac"/>
<rect x="263.1" y="162.0" width="44" height="15" fill="#ffffff"/>
<text x="266.1" y="174.0" font-family="-apple-system,Segoe UI,Helvetica,Arial,sans-serif" font-size="12" font-weight="normal" fill="#212529" text-anchor="start">0.78×</text>
<rect x="190" y="182.0" width="119.3" height="15" rx="3" fill="#69db7c"/>
<rect x="312.3" y="182.0" width="44" height="15" fill="#ffffff"/>
<text x="315.3" y="194.0" font-family="-apple-system,Segoe UI,Helvetica,Arial,sans-serif" font-size="12" font-weight="normal" fill="#212529" text-anchor="start">1.33×</text>
<text x="28.0" y="242.0" font-family="-apple-system,Segoe UI,Helvetica,Arial,sans-serif" font-size="15" font-weight="bold" fill="#212529" text-anchor="start">control</text>
<text x="28.0" y="260.0" font-family="-apple-system,Segoe UI,Helvetica,Arial,sans-serif" font-size="11" font-weight="normal" fill="#868e96" text-anchor="start">branches: a rule of behaviour</text>
<rect x="190" y="220.0" width="70.7" height="15" rx="3" fill="#f76707"/>
<rect x="263.7" y="220.0" width="44" height="15" fill="#ffffff"/>
<text x="266.7" y="232.0" font-family="-apple-system,Segoe UI,Helvetica,Arial,sans-serif" font-size="12" font-weight="bold" fill="#212529" text-anchor="start">0.79×</text>
<rect x="190" y="240.0" width="89.6" height="15" rx="3" fill="#4dabf7"/>
<rect x="282.6" y="240.0" width="44" height="15" fill="#ffffff"/>
<text x="285.6" y="252.0" font-family="-apple-system,Segoe UI,Helvetica,Arial,sans-serif" font-size="12" font-weight="normal" fill="#212529" text-anchor="start">1.00×</text>
<rect x="190" y="260.0" width="112.9" height="15" rx="3" fill="#b197fc"/>
<rect x="305.9" y="260.0" width="44" height="15" fill="#ffffff"/>
<text x="308.9" y="272.0" font-family="-apple-system,Segoe UI,Helvetica,Arial,sans-serif" font-size="12" font-weight="normal" fill="#212529" text-anchor="start">1.26×</text>
<rect x="190" y="280.0" width="63.1" height="15" rx="3" fill="#f783ac"/>
<rect x="256.1" y="280.0" width="44" height="15" fill="#ffffff"/>
<text x="259.1" y="292.0" font-family="-apple-system,Segoe UI,Helvetica,Arial,sans-serif" font-size="12" font-weight="normal" fill="#212529" text-anchor="start">0.70×</text>
<rect x="190" y="300.0" width="111.7" height="15" rx="3" fill="#69db7c"/>
<rect x="304.7" y="300.0" width="44" height="15" fill="#ffffff"/>
<text x="307.7" y="312.0" font-family="-apple-system,Segoe UI,Helvetica,Arial,sans-serif" font-size="12" font-weight="normal" fill="#212529" text-anchor="start">1.25×</text>
<text x="28.0" y="360.0" font-family="-apple-system,Segoe UI,Helvetica,Arial,sans-serif" font-size="15" font-weight="bold" fill="#212529" text-anchor="start">graph</text>
<text x="28.0" y="378.0" font-family="-apple-system,Segoe UI,Helvetica,Arial,sans-serif" font-size="11" font-weight="normal" fill="#868e96" text-anchor="start">checked references</text>
<rect x="190" y="338.0" width="71.1" height="15" rx="3" fill="#f76707"/>
<rect x="264.1" y="338.0" width="44" height="15" fill="#ffffff"/>
<text x="267.1" y="350.0" font-family="-apple-system,Segoe UI,Helvetica,Arial,sans-serif" font-size="12" font-weight="bold" fill="#212529" text-anchor="start">0.79×</text>
<rect x="190" y="358.0" width="89.6" height="15" rx="3" fill="#4dabf7"/>
<rect x="282.6" y="358.0" width="44" height="15" fill="#ffffff"/>
<text x="285.6" y="370.0" font-family="-apple-system,Segoe UI,Helvetica,Arial,sans-serif" font-size="12" font-weight="normal" fill="#212529" text-anchor="start">1.00×</text>
<rect x="190" y="378.0" width="156.5" height="15" rx="3" fill="#b197fc"/>
<rect x="349.5" y="378.0" width="44" height="15" fill="#ffffff"/>
<text x="352.5" y="390.0" font-family="-apple-system,Segoe UI,Helvetica,Arial,sans-serif" font-size="12" font-weight="normal" fill="#212529" text-anchor="start">1.75×</text>
<rect x="190" y="398.0" width="86.8" height="15" rx="3" fill="#f783ac"/>
<rect x="279.8" y="398.0" width="44" height="15" fill="#ffffff"/>
<text x="282.8" y="410.0" font-family="-apple-system,Segoe UI,Helvetica,Arial,sans-serif" font-size="12" font-weight="normal" fill="#212529" text-anchor="start">0.97×</text>
<rect x="190" y="418.0" width="518.5" height="15" rx="3" fill="#69db7c"/>
<rect x="711.5" y="418.0" width="44" height="15" fill="#ffffff"/>
<text x="714.5" y="430.0" font-family="-apple-system,Segoe UI,Helvetica,Arial,sans-serif" font-size="12" font-weight="normal" fill="#212529" text-anchor="start">5.79×</text>
<text x="28.0" y="478.0" font-family="-apple-system,Segoe UI,Helvetica,Arial,sans-serif" font-size="15" font-weight="bold" fill="#212529" text-anchor="start">words</text>
<text x="28.0" y="496.0" font-family="-apple-system,Segoe UI,Helvetica,Arial,sans-serif" font-size="11" font-weight="normal" fill="#868e96" text-anchor="start">text made, joined, split, searched</text>
<rect x="190" y="456.0" width="47.5" height="15" rx="3" fill="#f76707"/>
<rect x="240.5" y="456.0" width="44" height="15" fill="#ffffff"/>
<text x="243.5" y="468.0" font-family="-apple-system,Segoe UI,Helvetica,Arial,sans-serif" font-size="12" font-weight="bold" fill="#212529" text-anchor="start">0.53×</text>
<rect x="190" y="476.0" width="89.6" height="15" rx="3" fill="#4dabf7"/>
<rect x="282.6" y="476.0" width="44" height="15" fill="#ffffff"/>
<text x="285.6" y="488.0" font-family="-apple-system,Segoe UI,Helvetica,Arial,sans-serif" font-size="12" font-weight="normal" fill="#212529" text-anchor="start">1.00×</text>
<rect x="190" y="496.0" width="114.4" height="15" rx="3" fill="#b197fc"/>
<rect x="307.4" y="496.0" width="44" height="15" fill="#ffffff"/>
<text x="310.4" y="508.0" font-family="-apple-system,Segoe UI,Helvetica,Arial,sans-serif" font-size="12" font-weight="normal" fill="#212529" text-anchor="start">1.28×</text>
<rect x="190" y="516.0" width="49.9" height="15" rx="3" fill="#f783ac"/>
<rect x="242.9" y="516.0" width="44" height="15" fill="#ffffff"/>
<text x="245.9" y="528.0" font-family="-apple-system,Segoe UI,Helvetica,Arial,sans-serif" font-size="12" font-weight="normal" fill="#212529" text-anchor="start">0.56×</text>
<rect x="190" y="536.0" width="270.7" height="15" rx="3" fill="#69db7c"/>
<rect x="463.7" y="536.0" width="44" height="15" fill="#ffffff"/>
<text x="466.7" y="548.0" font-family="-apple-system,Segoe UI,Helvetica,Arial,sans-serif" font-size="12" font-weight="normal" fill="#212529" text-anchor="start">3.02×</text>
<text x="28.0" y="596.0" font-family="-apple-system,Segoe UI,Helvetica,Arial,sans-serif" font-size="15" font-weight="bold" fill="#212529" text-anchor="start">rules</text>
<text x="28.0" y="614.0" font-family="-apple-system,Segoe UI,Helvetica,Arial,sans-serif" font-size="11" font-weight="normal" fill="#868e96" text-anchor="start">a rules system over 4,000 actors</text>
<rect x="190" y="574.0" width="74.1" height="15" rx="3" fill="#f76707"/>
<rect x="267.1" y="574.0" width="44" height="15" fill="#ffffff"/>
<text x="270.1" y="586.0" font-family="-apple-system,Segoe UI,Helvetica,Arial,sans-serif" font-size="12" font-weight="bold" fill="#212529" text-anchor="start">0.83×</text>
<rect x="190" y="594.0" width="89.6" height="15" rx="3" fill="#4dabf7"/>
<rect x="282.6" y="594.0" width="44" height="15" fill="#ffffff"/>
<text x="285.6" y="606.0" font-family="-apple-system,Segoe UI,Helvetica,Arial,sans-serif" font-size="12" font-weight="normal" fill="#212529" text-anchor="start">1.00×</text>
<rect x="190" y="614.0" width="161.1" height="15" rx="3" fill="#b197fc"/>
<rect x="354.1" y="614.0" width="44" height="15" fill="#ffffff"/>
<text x="357.1" y="626.0" font-family="-apple-system,Segoe UI,Helvetica,Arial,sans-serif" font-size="12" font-weight="normal" fill="#212529" text-anchor="start">1.80×</text>
<rect x="190" y="634.0" width="88.3" height="15" rx="3" fill="#f783ac"/>
<rect x="281.3" y="634.0" width="44" height="15" fill="#ffffff"/>
<text x="284.3" y="646.0" font-family="-apple-system,Segoe UI,Helvetica,Arial,sans-serif" font-size="12" font-weight="normal" fill="#212529" text-anchor="start">0.99×</text>
<rect x="190" y="654.0" width="84.2" height="15" rx="3" fill="#69db7c"/>
<rect x="277.2" y="654.0" width="44" height="15" fill="#ffffff"/>
<text x="280.2" y="666.0" font-family="-apple-system,Segoe UI,Helvetica,Arial,sans-serif" font-size="12" font-weight="normal" fill="#212529" text-anchor="start">0.94×</text>
<text x="430.0" y="718.0" font-family="-apple-system,Segoe UI,Helvetica,Arial,sans-serif" font-size="11" font-weight="normal" fill="#868e96" text-anchor="middle">Measured 2026-09-29 at commit a5310c3c on Intel Core Processor (Haswell, no TSX), load 0.15. Best of 15 by processor time; lower is better.</text>
</svg>
