<svg xmlns="http://www.w3.org/2000/svg" width="860" height="538" viewBox="0 0 860 538">
<rect width="100%" height="100%" rx="10" fill="#ffffff"/>
<text x="28.0" y="38.0" font-family="-apple-system,Segoe UI,Helvetica,Arial,sans-serif" font-size="20" font-weight="bold" fill="#212529" text-anchor="start">Interpreters: time against Luau's</text>
<text x="28.0" y="62.0" font-family="-apple-system,Segoe UI,Helvetica,Arial,sans-serif" font-size="13" font-weight="normal" fill="#495057" text-anchor="start">Each bar is a share of what Luau -O2 took on the same workload. Under the dashed line is faster than Luau.</text>
<rect x="190.0" y="74.0" width="12" height="12" rx="2" fill="#f76707"/>
<text x="207.0" y="84.0" font-family="-apple-system,Segoe UI,Helvetica,Arial,sans-serif" font-size="12" font-weight="normal" fill="#212529" text-anchor="start">Kest</text>
<rect x="248.8" y="74.0" width="12" height="12" rx="2" fill="#4dabf7"/>
<text x="265.8" y="84.0" font-family="-apple-system,Segoe UI,Helvetica,Arial,sans-serif" font-size="12" font-weight="normal" fill="#212529" text-anchor="start">Luau</text>
<rect x="307.6" y="74.0" width="12" height="12" rx="2" fill="#69db7c"/>
<text x="324.6" y="84.0" font-family="-apple-system,Segoe UI,Helvetica,Arial,sans-serif" font-size="12" font-weight="normal" fill="#212529" text-anchor="start">daslang</text>
<line x1="292.0" y1="92" x2="292.0" y2="482" stroke="#1864ab" stroke-width="1.5" stroke-dasharray="5,4" opacity="0.6"/>
<text x="28.0" y="124.0" font-family="-apple-system,Segoe UI,Helvetica,Arial,sans-serif" font-size="15" font-weight="bold" fill="#212529" text-anchor="start">kernel</text>
<text x="28.0" y="142.0" font-family="-apple-system,Segoe UI,Helvetica,Arial,sans-serif" font-size="11" font-weight="normal" fill="#868e96" text-anchor="start">numbers in, numbers out</text>
<rect x="190" y="102.0" width="76.0" height="15" rx="3" fill="#f76707"/>
<rect x="269.0" y="102.0" width="44" height="15" fill="#ffffff"/>
<text x="272.0" y="114.0" font-family="-apple-system,Segoe UI,Helvetica,Arial,sans-serif" font-size="12" font-weight="bold" fill="#212529" text-anchor="start">0.74×</text>
<rect x="190" y="122.0" width="102.0" height="15" rx="3" fill="#4dabf7"/>
<rect x="295.0" y="122.0" width="44" height="15" fill="#ffffff"/>
<text x="298.0" y="134.0" font-family="-apple-system,Segoe UI,Helvetica,Arial,sans-serif" font-size="12" font-weight="normal" fill="#212529" text-anchor="start">1.00×</text>
<rect x="190" y="142.0" width="152.6" height="15" rx="3" fill="#69db7c"/>
<rect x="345.6" y="142.0" width="44" height="15" fill="#ffffff"/>
<text x="348.6" y="154.0" font-family="-apple-system,Segoe UI,Helvetica,Arial,sans-serif" font-size="12" font-weight="normal" fill="#212529" text-anchor="start">1.50×</text>
<text x="28.0" y="202.0" font-family="-apple-system,Segoe UI,Helvetica,Arial,sans-serif" font-size="15" font-weight="bold" fill="#212529" text-anchor="start">control</text>
<text x="28.0" y="220.0" font-family="-apple-system,Segoe UI,Helvetica,Arial,sans-serif" font-size="11" font-weight="normal" fill="#868e96" text-anchor="start">branches: a rule of behaviour</text>
<rect x="190" y="180.0" width="99.4" height="15" rx="3" fill="#f76707"/>
<rect x="292.4" y="180.0" width="44" height="15" fill="#ffffff"/>
<text x="295.4" y="192.0" font-family="-apple-system,Segoe UI,Helvetica,Arial,sans-serif" font-size="12" font-weight="bold" fill="#212529" text-anchor="start">0.97×</text>
<rect x="190" y="200.0" width="102.0" height="15" rx="3" fill="#4dabf7"/>
<rect x="295.0" y="200.0" width="44" height="15" fill="#ffffff"/>
<text x="298.0" y="212.0" font-family="-apple-system,Segoe UI,Helvetica,Arial,sans-serif" font-size="12" font-weight="normal" fill="#212529" text-anchor="start">1.00×</text>
<rect x="190" y="220.0" width="146.2" height="15" rx="3" fill="#69db7c"/>
<rect x="339.2" y="220.0" width="44" height="15" fill="#ffffff"/>
<text x="342.2" y="232.0" font-family="-apple-system,Segoe UI,Helvetica,Arial,sans-serif" font-size="12" font-weight="normal" fill="#212529" text-anchor="start">1.43×</text>
<text x="28.0" y="280.0" font-family="-apple-system,Segoe UI,Helvetica,Arial,sans-serif" font-size="15" font-weight="bold" fill="#212529" text-anchor="start">graph</text>
<text x="28.0" y="298.0" font-family="-apple-system,Segoe UI,Helvetica,Arial,sans-serif" font-size="11" font-weight="normal" fill="#868e96" text-anchor="start">checked references</text>
<rect x="190" y="258.0" width="82.7" height="15" rx="3" fill="#f76707"/>
<rect x="275.7" y="258.0" width="44" height="15" fill="#ffffff"/>
<text x="278.7" y="270.0" font-family="-apple-system,Segoe UI,Helvetica,Arial,sans-serif" font-size="12" font-weight="bold" fill="#212529" text-anchor="start">0.81×</text>
<rect x="190" y="278.0" width="102.0" height="15" rx="3" fill="#4dabf7"/>
<rect x="295.0" y="278.0" width="44" height="15" fill="#ffffff"/>
<text x="298.0" y="290.0" font-family="-apple-system,Segoe UI,Helvetica,Arial,sans-serif" font-size="12" font-weight="normal" fill="#212529" text-anchor="start">1.00×</text>
<rect x="190" y="298.0" width="518.5" height="15" rx="3" fill="#69db7c"/>
<rect x="711.5" y="298.0" width="44" height="15" fill="#ffffff"/>
<text x="714.5" y="310.0" font-family="-apple-system,Segoe UI,Helvetica,Arial,sans-serif" font-size="12" font-weight="normal" fill="#212529" text-anchor="start">5.08×</text>
<text x="28.0" y="358.0" font-family="-apple-system,Segoe UI,Helvetica,Arial,sans-serif" font-size="15" font-weight="bold" fill="#212529" text-anchor="start">words</text>
<text x="28.0" y="376.0" font-family="-apple-system,Segoe UI,Helvetica,Arial,sans-serif" font-size="11" font-weight="normal" fill="#868e96" text-anchor="start">text made, joined, split, searched</text>
<rect x="190" y="336.0" width="78.0" height="15" rx="3" fill="#f76707"/>
<rect x="271.0" y="336.0" width="44" height="15" fill="#ffffff"/>
<text x="274.0" y="348.0" font-family="-apple-system,Segoe UI,Helvetica,Arial,sans-serif" font-size="12" font-weight="bold" fill="#212529" text-anchor="start">0.76×</text>
<rect x="190" y="356.0" width="102.0" height="15" rx="3" fill="#4dabf7"/>
<rect x="295.0" y="356.0" width="44" height="15" fill="#ffffff"/>
<text x="298.0" y="368.0" font-family="-apple-system,Segoe UI,Helvetica,Arial,sans-serif" font-size="12" font-weight="normal" fill="#212529" text-anchor="start">1.00×</text>
<rect x="190" y="376.0" width="320.8" height="15" rx="3" fill="#69db7c"/>
<rect x="513.8" y="376.0" width="44" height="15" fill="#ffffff"/>
<text x="516.8" y="388.0" font-family="-apple-system,Segoe UI,Helvetica,Arial,sans-serif" font-size="12" font-weight="normal" fill="#212529" text-anchor="start">3.14×</text>
<text x="28.0" y="436.0" font-family="-apple-system,Segoe UI,Helvetica,Arial,sans-serif" font-size="15" font-weight="bold" fill="#212529" text-anchor="start">rules</text>
<text x="28.0" y="454.0" font-family="-apple-system,Segoe UI,Helvetica,Arial,sans-serif" font-size="11" font-weight="normal" fill="#868e96" text-anchor="start">a rules system over 4,000 actors</text>
<rect x="190" y="414.0" width="95.6" height="15" rx="3" fill="#f76707"/>
<rect x="288.6" y="414.0" width="44" height="15" fill="#ffffff"/>
<text x="291.6" y="426.0" font-family="-apple-system,Segoe UI,Helvetica,Arial,sans-serif" font-size="12" font-weight="bold" fill="#212529" text-anchor="start">0.94×</text>
<rect x="190" y="434.0" width="102.0" height="15" rx="3" fill="#4dabf7"/>
<rect x="295.0" y="434.0" width="44" height="15" fill="#ffffff"/>
<text x="298.0" y="446.0" font-family="-apple-system,Segoe UI,Helvetica,Arial,sans-serif" font-size="12" font-weight="normal" fill="#212529" text-anchor="start">1.00×</text>
<rect x="190" y="454.0" width="120.5" height="15" rx="3" fill="#69db7c"/>
<rect x="313.5" y="454.0" width="44" height="15" fill="#ffffff"/>
<text x="316.5" y="466.0" font-family="-apple-system,Segoe UI,Helvetica,Arial,sans-serif" font-size="12" font-weight="normal" fill="#212529" text-anchor="start">1.18×</text>
<text x="430.0" y="518.0" font-family="-apple-system,Segoe UI,Helvetica,Arial,sans-serif" font-size="11" font-weight="normal" fill="#868e96" text-anchor="middle">Measured 2026-09-23 at commit 80a8d331 on AMD Ryzen 5 3600 6-Core Processor. Best of 15 by processor time; lower is better.</text>
</svg>
